<?xml version="1.0" standalone="no"?><!DOCTYPE svg PUBLIC "-//W3C//DTD SVG 1.1//EN" "http://www.w3.org/Graphics/SVG/1.1/DTD/svg11.dtd"><svg class="icon" height="512" viewBox="0 0 1024 1024" version="1.1" xmlns="http://www.w3.org/2000/svg"><path d="M950.876074 102.588493c-14.135952-26.709315-36.134988-39.279608-65.986877-39.279608-124.116809 0-249.809509 0-373.929388 0-47.134507 0-94.26799 0-141.401474 0-78.558194 0-157.11741 0-235.671511 0-39.277562 0-65.9879 23.566742-70.701249 61.274552 0 3.142573 1.570775 9.426697 3.142573 10.998495 98.980315 113.121384 197.964724 223.101217 298.516838 334.651826 4.714372 4.714372 6.285147 9.42772 6.285147 17.280572 0 103.693664 0 205.824739 0 309.519426 0 45.558615 21.99392 80.125899 62.84635 100.552114 28.279067 14.141068 58.131979 23.567765 86.411045 36.131919 23.564695 9.426697 45.561685 18.854417 69.130474 26.711362 23.565718 7.856945 45.562708-3.142573 53.419653-23.568788 3.14155-7.848759 4.712325-18.847254 4.712325-28.274974 0-139.832745 0-279.666514 0-419.498236 0-6.282077 1.570775-10.995425 6.285147-15.709797 36.136012-40.84936 73.840752-81.69872 109.980857-122.549104 62.845327-70.700225 127.259382-141.40352 190.104709-212.102722 1.570775-1.571798 4.713348-6.285147 4.713348-9.426697C955.589422 119.870088 955.589422 110.443391 950.876074 102.588493zM856.609107 143.43683c-78.559217 86.414115-155.541519 172.825161-234.099712 259.237229-1.570775 1.571798-20.426215 20.426215-43.99091 42.422182 0 131.977847 0 311.085084 0 435.204963-3.142573-1.570775-6.285147-1.570775-7.855922-3.14155-32.993438-12.570293-65.9879-26.711362-98.982362-39.281655-20.425192-7.854898-29.852912-23.560602-29.852912-45.558615 0-100.552114 0-201.110367 0-303.233256 0-1.570775 0-23.565718 0-43.989887-21.99392-21.995967-40.848337-39.279608-42.420135-40.850383-81.697697-87.983867-160.254867-177.537486-240.384859-265.521353-1.571798-1.571798-3.142573-3.142573-4.713348-6.285147 237.242286 0 472.912773 0 711.725834 0C861.323479 137.152706 859.750657 140.296303 856.609107 143.43683z" /></svg>